G75*
G70*
%OFA0B0*%
%FSLAX24Y24*%
%IPPOS*%
%LPD*%
%AMOC8*
5,1,8,0,0,1.08239X$1,22.5*
%
%ADD10C,0.0000*%
%ADD11C,0.0827*%
%ADD12OC8,0.0520*%
%ADD13C,0.0600*%
%ADD14R,0.0787X0.0787*%
%ADD15C,0.2150*%
%ADD16C,0.0160*%
%ADD17C,0.0500*%
D10*
X000101Y000101D02*
X000101Y028101D01*
X035101Y028101D01*
X035101Y000101D01*
X000101Y000101D01*
X001471Y002101D02*
X001473Y002151D01*
X001479Y002201D01*
X001489Y002250D01*
X001503Y002298D01*
X001520Y002345D01*
X001541Y002390D01*
X001566Y002434D01*
X001594Y002475D01*
X001626Y002514D01*
X001660Y002551D01*
X001697Y002585D01*
X001737Y002615D01*
X001779Y002642D01*
X001823Y002666D01*
X001869Y002687D01*
X001916Y002703D01*
X001964Y002716D01*
X002014Y002725D01*
X002063Y002730D01*
X002114Y002731D01*
X002164Y002728D01*
X002213Y002721D01*
X002262Y002710D01*
X002310Y002695D01*
X002356Y002677D01*
X002401Y002655D01*
X002444Y002629D01*
X002485Y002600D01*
X002524Y002568D01*
X002560Y002533D01*
X002592Y002495D01*
X002622Y002455D01*
X002649Y002412D01*
X002672Y002368D01*
X002691Y002322D01*
X002707Y002274D01*
X002719Y002225D01*
X002727Y002176D01*
X002731Y002126D01*
X002731Y002076D01*
X002727Y002026D01*
X002719Y001977D01*
X002707Y001928D01*
X002691Y001880D01*
X002672Y001834D01*
X002649Y001790D01*
X002622Y001747D01*
X002592Y001707D01*
X002560Y001669D01*
X002524Y001634D01*
X002485Y001602D01*
X002444Y001573D01*
X002401Y001547D01*
X002356Y001525D01*
X002310Y001507D01*
X002262Y001492D01*
X002213Y001481D01*
X002164Y001474D01*
X002114Y001471D01*
X002063Y001472D01*
X002014Y001477D01*
X001964Y001486D01*
X001916Y001499D01*
X001869Y001515D01*
X001823Y001536D01*
X001779Y001560D01*
X001737Y001587D01*
X001697Y001617D01*
X001660Y001651D01*
X001626Y001688D01*
X001594Y001727D01*
X001566Y001768D01*
X001541Y001812D01*
X001520Y001857D01*
X001503Y001904D01*
X001489Y001952D01*
X001479Y002001D01*
X001473Y002051D01*
X001471Y002101D01*
X001471Y026101D02*
X001473Y026151D01*
X001479Y026201D01*
X001489Y026250D01*
X001503Y026298D01*
X001520Y026345D01*
X001541Y026390D01*
X001566Y026434D01*
X001594Y026475D01*
X001626Y026514D01*
X001660Y026551D01*
X001697Y026585D01*
X001737Y026615D01*
X001779Y026642D01*
X001823Y026666D01*
X001869Y026687D01*
X001916Y026703D01*
X001964Y026716D01*
X002014Y026725D01*
X002063Y026730D01*
X002114Y026731D01*
X002164Y026728D01*
X002213Y026721D01*
X002262Y026710D01*
X002310Y026695D01*
X002356Y026677D01*
X002401Y026655D01*
X002444Y026629D01*
X002485Y026600D01*
X002524Y026568D01*
X002560Y026533D01*
X002592Y026495D01*
X002622Y026455D01*
X002649Y026412D01*
X002672Y026368D01*
X002691Y026322D01*
X002707Y026274D01*
X002719Y026225D01*
X002727Y026176D01*
X002731Y026126D01*
X002731Y026076D01*
X002727Y026026D01*
X002719Y025977D01*
X002707Y025928D01*
X002691Y025880D01*
X002672Y025834D01*
X002649Y025790D01*
X002622Y025747D01*
X002592Y025707D01*
X002560Y025669D01*
X002524Y025634D01*
X002485Y025602D01*
X002444Y025573D01*
X002401Y025547D01*
X002356Y025525D01*
X002310Y025507D01*
X002262Y025492D01*
X002213Y025481D01*
X002164Y025474D01*
X002114Y025471D01*
X002063Y025472D01*
X002014Y025477D01*
X001964Y025486D01*
X001916Y025499D01*
X001869Y025515D01*
X001823Y025536D01*
X001779Y025560D01*
X001737Y025587D01*
X001697Y025617D01*
X001660Y025651D01*
X001626Y025688D01*
X001594Y025727D01*
X001566Y025768D01*
X001541Y025812D01*
X001520Y025857D01*
X001503Y025904D01*
X001489Y025952D01*
X001479Y026001D01*
X001473Y026051D01*
X001471Y026101D01*
X032471Y026101D02*
X032473Y026151D01*
X032479Y026201D01*
X032489Y026250D01*
X032503Y026298D01*
X032520Y026345D01*
X032541Y026390D01*
X032566Y026434D01*
X032594Y026475D01*
X032626Y026514D01*
X032660Y026551D01*
X032697Y026585D01*
X032737Y026615D01*
X032779Y026642D01*
X032823Y026666D01*
X032869Y026687D01*
X032916Y026703D01*
X032964Y026716D01*
X033014Y026725D01*
X033063Y026730D01*
X033114Y026731D01*
X033164Y026728D01*
X033213Y026721D01*
X033262Y026710D01*
X033310Y026695D01*
X033356Y026677D01*
X033401Y026655D01*
X033444Y026629D01*
X033485Y026600D01*
X033524Y026568D01*
X033560Y026533D01*
X033592Y026495D01*
X033622Y026455D01*
X033649Y026412D01*
X033672Y026368D01*
X033691Y026322D01*
X033707Y026274D01*
X033719Y026225D01*
X033727Y026176D01*
X033731Y026126D01*
X033731Y026076D01*
X033727Y026026D01*
X033719Y025977D01*
X033707Y025928D01*
X033691Y025880D01*
X033672Y025834D01*
X033649Y025790D01*
X033622Y025747D01*
X033592Y025707D01*
X033560Y025669D01*
X033524Y025634D01*
X033485Y025602D01*
X033444Y025573D01*
X033401Y025547D01*
X033356Y025525D01*
X033310Y025507D01*
X033262Y025492D01*
X033213Y025481D01*
X033164Y025474D01*
X033114Y025471D01*
X033063Y025472D01*
X033014Y025477D01*
X032964Y025486D01*
X032916Y025499D01*
X032869Y025515D01*
X032823Y025536D01*
X032779Y025560D01*
X032737Y025587D01*
X032697Y025617D01*
X032660Y025651D01*
X032626Y025688D01*
X032594Y025727D01*
X032566Y025768D01*
X032541Y025812D01*
X032520Y025857D01*
X032503Y025904D01*
X032489Y025952D01*
X032479Y026001D01*
X032473Y026051D01*
X032471Y026101D01*
X032471Y002101D02*
X032473Y002151D01*
X032479Y002201D01*
X032489Y002250D01*
X032503Y002298D01*
X032520Y002345D01*
X032541Y002390D01*
X032566Y002434D01*
X032594Y002475D01*
X032626Y002514D01*
X032660Y002551D01*
X032697Y002585D01*
X032737Y002615D01*
X032779Y002642D01*
X032823Y002666D01*
X032869Y002687D01*
X032916Y002703D01*
X032964Y002716D01*
X033014Y002725D01*
X033063Y002730D01*
X033114Y002731D01*
X033164Y002728D01*
X033213Y002721D01*
X033262Y002710D01*
X033310Y002695D01*
X033356Y002677D01*
X033401Y002655D01*
X033444Y002629D01*
X033485Y002600D01*
X033524Y002568D01*
X033560Y002533D01*
X033592Y002495D01*
X033622Y002455D01*
X033649Y002412D01*
X033672Y002368D01*
X033691Y002322D01*
X033707Y002274D01*
X033719Y002225D01*
X033727Y002176D01*
X033731Y002126D01*
X033731Y002076D01*
X033727Y002026D01*
X033719Y001977D01*
X033707Y001928D01*
X033691Y001880D01*
X033672Y001834D01*
X033649Y001790D01*
X033622Y001747D01*
X033592Y001707D01*
X033560Y001669D01*
X033524Y001634D01*
X033485Y001602D01*
X033444Y001573D01*
X033401Y001547D01*
X033356Y001525D01*
X033310Y001507D01*
X033262Y001492D01*
X033213Y001481D01*
X033164Y001474D01*
X033114Y001471D01*
X033063Y001472D01*
X033014Y001477D01*
X032964Y001486D01*
X032916Y001499D01*
X032869Y001515D01*
X032823Y001536D01*
X032779Y001560D01*
X032737Y001587D01*
X032697Y001617D01*
X032660Y001651D01*
X032626Y001688D01*
X032594Y001727D01*
X032566Y001768D01*
X032541Y001812D01*
X032520Y001857D01*
X032503Y001904D01*
X032489Y001952D01*
X032479Y002001D01*
X032473Y002051D01*
X032471Y002101D01*
D11*
X024014Y020624D02*
X023187Y020624D01*
X023187Y023577D02*
X024014Y023577D01*
X012014Y023577D02*
X011187Y023577D01*
X011187Y020624D02*
X012014Y020624D01*
D12*
X014601Y021101D03*
X014601Y023601D03*
X019601Y023601D03*
X019601Y021101D03*
X019601Y018601D03*
X014601Y018601D03*
D13*
X017101Y006401D02*
X017101Y005801D01*
X018101Y005801D02*
X018101Y006401D01*
X019101Y006401D02*
X019101Y005801D01*
D14*
X024101Y006101D03*
X031601Y006101D03*
X011601Y006101D03*
X004101Y006101D03*
D15*
X004101Y012101D03*
X011601Y012101D03*
X024101Y012101D03*
X031601Y012101D03*
D16*
X024601Y020624D01*
X023624Y020624D01*
X019601Y021101D02*
X019601Y018601D01*
X017601Y017101D01*
X011601Y012101D01*
X011601Y006101D01*
X017101Y006101D01*
X019101Y006101D02*
X024101Y006101D01*
X024101Y012101D01*
X031601Y012101D02*
X031601Y006101D01*
X014601Y021101D02*
X014601Y023601D01*
X011601Y020624D02*
X011601Y020601D01*
X004101Y012101D02*
X004101Y006101D01*
D17*
X011601Y020601D02*
X014601Y018601D01*
X019601Y018601D02*
X023624Y020624D01*
X023601Y020624D01*
X023601Y023577D02*
X022101Y025077D01*
X021601Y025601D01*
X019601Y025601D01*
X019601Y023601D01*
X019601Y025601D02*
X013601Y025601D01*
X011601Y023601D01*
X011601Y023577D01*
M02*
