G75*
G70*
%OFA0B0*%
%FSLAX24Y24*%
%IPPOS*%
%LPD*%
%AMOC8*
5,1,8,0,0,1.08239X$1,22.5*
%
%ADD10C,0.0060*%
%ADD11C,0.0050*%
%ADD12R,0.0340X0.0240*%
D10*
X003844Y004131D02*
X004058Y004344D01*
X004058Y004771D01*
X004275Y004451D02*
X004702Y004451D01*
X004489Y004665D02*
X004489Y004238D01*
X003844Y004131D02*
X003631Y004344D01*
X003631Y004771D01*
X011131Y004771D02*
X011131Y004344D01*
X011344Y004131D01*
X011558Y004344D01*
X011558Y004771D01*
X011775Y004451D02*
X012202Y004451D01*
X011951Y001771D02*
X011631Y001771D01*
X011631Y001131D01*
X011951Y001131D01*
X012058Y001238D01*
X012058Y001665D01*
X011951Y001771D01*
X012382Y001558D02*
X012596Y001558D01*
X012702Y001451D01*
X012702Y001131D01*
X012382Y001131D01*
X012275Y001238D01*
X012382Y001344D01*
X012702Y001344D01*
X012920Y001131D02*
X012920Y001558D01*
X013240Y001558D01*
X013347Y001451D01*
X013347Y001131D01*
X013564Y001131D02*
X013778Y001131D01*
X013671Y001131D02*
X013671Y001558D01*
X013564Y001558D01*
X013671Y001771D02*
X013671Y001878D01*
X013994Y001451D02*
X014101Y001558D01*
X014314Y001558D01*
X014421Y001451D01*
X014421Y001344D01*
X013994Y001344D01*
X013994Y001238D02*
X013994Y001451D01*
X013994Y001238D02*
X014101Y001131D01*
X014314Y001131D01*
X014639Y001131D02*
X014852Y001131D01*
X014745Y001131D02*
X014745Y001771D01*
X014639Y001771D01*
X015713Y001665D02*
X015713Y001558D01*
X015820Y001451D01*
X016033Y001451D01*
X016140Y001344D01*
X016140Y001238D01*
X016033Y001131D01*
X015820Y001131D01*
X015713Y001238D01*
X015713Y001665D02*
X015820Y001771D01*
X016033Y001771D01*
X016140Y001665D01*
X016357Y001451D02*
X016357Y001238D01*
X016464Y001131D01*
X016678Y001131D01*
X016784Y001238D01*
X016784Y001451D01*
X016678Y001558D01*
X016464Y001558D01*
X016357Y001451D01*
X017002Y001558D02*
X017215Y001558D01*
X017109Y001665D02*
X017109Y001238D01*
X017215Y001131D01*
X017432Y001238D02*
X017432Y001451D01*
X017538Y001558D01*
X017752Y001558D01*
X017859Y001451D01*
X017859Y001238D01*
X017752Y001131D01*
X017538Y001131D01*
X017432Y001238D01*
X019365Y001131D02*
X019365Y001558D01*
X019579Y001771D01*
X019792Y001558D01*
X019792Y001131D01*
X020010Y001238D02*
X020116Y001131D01*
X020330Y001131D01*
X020437Y001238D01*
X020654Y001024D02*
X021081Y001024D01*
X021299Y001131D02*
X021619Y001131D01*
X021726Y001238D01*
X021726Y001344D01*
X021619Y001451D01*
X021299Y001451D01*
X021619Y001451D02*
X021726Y001558D01*
X021726Y001665D01*
X021619Y001771D01*
X021299Y001771D01*
X021299Y001131D01*
X021943Y001131D02*
X021943Y001558D01*
X021943Y001344D02*
X022157Y001558D01*
X022263Y001558D01*
X022480Y001451D02*
X022587Y001558D01*
X022801Y001558D01*
X022907Y001451D01*
X022907Y001344D01*
X022480Y001344D01*
X022480Y001238D02*
X022480Y001451D01*
X022480Y001238D02*
X022587Y001131D01*
X022801Y001131D01*
X023125Y001238D02*
X023232Y001344D01*
X023552Y001344D01*
X023552Y001451D02*
X023552Y001131D01*
X023232Y001131D01*
X023125Y001238D01*
X023232Y001558D02*
X023445Y001558D01*
X023552Y001451D01*
X023769Y001344D02*
X024090Y001558D01*
X024306Y001451D02*
X024306Y001238D01*
X024413Y001131D01*
X024627Y001131D01*
X024733Y001238D01*
X024733Y001451D01*
X024627Y001558D01*
X024413Y001558D01*
X024306Y001451D01*
X024090Y001131D02*
X023769Y001344D01*
X023769Y001131D02*
X023769Y001771D01*
X024951Y001558D02*
X024951Y001238D01*
X025058Y001131D01*
X025378Y001131D01*
X025378Y001558D01*
X025596Y001558D02*
X025809Y001558D01*
X025702Y001665D02*
X025702Y001238D01*
X025809Y001131D01*
X026025Y001024D02*
X026452Y001024D01*
X026883Y001131D02*
X027097Y001558D01*
X027314Y001665D02*
X027314Y001238D01*
X027741Y001665D01*
X027741Y001238D01*
X027634Y001131D01*
X027421Y001131D01*
X027314Y001238D01*
X027314Y001665D02*
X027421Y001771D01*
X027634Y001771D01*
X027741Y001665D01*
X027959Y001238D02*
X028066Y001238D01*
X028066Y001131D01*
X027959Y001131D01*
X027959Y001238D01*
X028281Y001131D02*
X028708Y001131D01*
X028495Y001131D02*
X028495Y001771D01*
X028281Y001558D01*
X026883Y001131D02*
X026670Y001558D01*
X023844Y004131D02*
X023631Y004131D01*
X023738Y004131D02*
X023738Y004771D01*
X023844Y004771D02*
X023631Y004771D01*
X024060Y004451D02*
X024487Y004451D01*
X024274Y004665D02*
X024274Y004238D01*
X020437Y001665D02*
X020330Y001771D01*
X020116Y001771D01*
X020010Y001665D01*
X020010Y001238D01*
X019792Y001451D02*
X019365Y001451D01*
X019344Y004131D02*
X019131Y004131D01*
X019238Y004131D02*
X019238Y004771D01*
X019344Y004771D02*
X019131Y004771D01*
X018308Y004771D02*
X018308Y004344D01*
X018094Y004131D01*
X017881Y004344D01*
X017881Y004771D01*
X017058Y004665D02*
X016951Y004771D01*
X016738Y004771D01*
X016631Y004665D01*
X016631Y004238D01*
X016738Y004131D01*
X016951Y004131D01*
X017058Y004238D01*
X017058Y004451D01*
X016844Y004451D01*
X016851Y005601D02*
X016601Y005851D01*
X016601Y006351D01*
X016851Y006601D01*
X017351Y006601D01*
X017601Y006351D01*
X017851Y006601D01*
X018351Y006601D01*
X018601Y006351D01*
X018851Y006601D01*
X019351Y006601D01*
X019601Y006351D01*
X019601Y005851D01*
X019351Y005601D01*
X018851Y005601D01*
X018601Y005851D01*
X018351Y005601D01*
X017851Y005601D01*
X017601Y005851D01*
X017351Y005601D01*
X016851Y005601D01*
X017601Y005851D02*
X017601Y006351D01*
X018601Y006351D02*
X018601Y005851D01*
X031631Y004771D02*
X031844Y004771D01*
X031738Y004771D02*
X031738Y004131D01*
X031844Y004131D02*
X031631Y004131D01*
X032060Y004451D02*
X032487Y004451D01*
X024240Y017631D02*
X024347Y017738D01*
X024347Y018271D01*
X023920Y018271D02*
X023920Y017738D01*
X024027Y017631D01*
X024240Y017631D01*
X023702Y017631D02*
X023275Y017631D01*
X023275Y018271D01*
X023702Y018271D01*
X023489Y017951D02*
X023275Y017951D01*
X023058Y017631D02*
X023058Y018271D01*
X022631Y018271D02*
X023058Y017631D01*
X022631Y017631D02*
X022631Y018271D01*
X018801Y018101D02*
X018801Y019101D01*
X018799Y019118D01*
X018795Y019135D01*
X018788Y019151D01*
X018778Y019165D01*
X018765Y019178D01*
X018751Y019188D01*
X018735Y019195D01*
X018718Y019199D01*
X018701Y019201D01*
X018451Y019201D01*
X018401Y019151D01*
X015801Y019151D01*
X015751Y019201D01*
X015501Y019201D01*
X015484Y019199D01*
X015467Y019195D01*
X015451Y019188D01*
X015437Y019178D01*
X015424Y019165D01*
X015414Y019151D01*
X015407Y019135D01*
X015403Y019118D01*
X015401Y019101D01*
X015401Y018101D01*
X015403Y018084D01*
X015407Y018067D01*
X015414Y018051D01*
X015424Y018037D01*
X015437Y018024D01*
X015451Y018014D01*
X015467Y018007D01*
X015484Y018003D01*
X015501Y018001D01*
X015751Y018001D01*
X015801Y018051D01*
X018401Y018051D01*
X018451Y018001D01*
X018701Y018001D01*
X018718Y018003D01*
X018735Y018007D01*
X018751Y018014D01*
X018765Y018024D01*
X018778Y018037D01*
X018788Y018051D01*
X018795Y018067D01*
X018799Y018084D01*
X018801Y018101D01*
X018701Y020501D02*
X018451Y020501D01*
X018401Y020551D01*
X015801Y020551D01*
X015751Y020501D01*
X015501Y020501D01*
X015484Y020503D01*
X015467Y020507D01*
X015451Y020514D01*
X015437Y020524D01*
X015424Y020537D01*
X015414Y020551D01*
X015407Y020567D01*
X015403Y020584D01*
X015401Y020601D01*
X015401Y021601D01*
X015403Y021618D01*
X015407Y021635D01*
X015414Y021651D01*
X015424Y021665D01*
X015437Y021678D01*
X015451Y021688D01*
X015467Y021695D01*
X015484Y021699D01*
X015501Y021701D01*
X015751Y021701D01*
X015801Y021651D01*
X018401Y021651D01*
X018451Y021701D01*
X018701Y021701D01*
X018718Y021699D01*
X018735Y021695D01*
X018751Y021688D01*
X018765Y021678D01*
X018778Y021665D01*
X018788Y021651D01*
X018795Y021635D01*
X018799Y021618D01*
X018801Y021601D01*
X018801Y020601D01*
X018799Y020584D01*
X018795Y020567D01*
X018788Y020551D01*
X018778Y020537D01*
X018765Y020524D01*
X018751Y020514D01*
X018735Y020507D01*
X018718Y020503D01*
X018701Y020501D01*
X018701Y023001D02*
X018451Y023001D01*
X018401Y023051D01*
X015801Y023051D01*
X015751Y023001D01*
X015501Y023001D01*
X015484Y023003D01*
X015467Y023007D01*
X015451Y023014D01*
X015437Y023024D01*
X015424Y023037D01*
X015414Y023051D01*
X015407Y023067D01*
X015403Y023084D01*
X015401Y023101D01*
X015401Y024101D01*
X015403Y024118D01*
X015407Y024135D01*
X015414Y024151D01*
X015424Y024165D01*
X015437Y024178D01*
X015451Y024188D01*
X015467Y024195D01*
X015484Y024199D01*
X015501Y024201D01*
X015751Y024201D01*
X015801Y024151D01*
X018401Y024151D01*
X018451Y024201D01*
X018701Y024201D01*
X018718Y024199D01*
X018735Y024195D01*
X018751Y024188D01*
X018765Y024178D01*
X018778Y024165D01*
X018788Y024151D01*
X018795Y024135D01*
X018799Y024118D01*
X018801Y024101D01*
X018801Y023101D01*
X018799Y023084D01*
X018795Y023067D01*
X018788Y023051D01*
X018778Y023037D01*
X018765Y023024D01*
X018751Y023014D01*
X018735Y023007D01*
X018718Y023003D01*
X018701Y023001D01*
X022631Y025631D02*
X022631Y026271D01*
X023058Y026271D02*
X023058Y025631D01*
X023275Y025738D02*
X023382Y025631D01*
X023596Y025631D01*
X023702Y025738D01*
X023702Y026165D01*
X023596Y026271D01*
X023382Y026271D01*
X023275Y026165D01*
X023275Y025738D01*
X023058Y025951D02*
X022631Y025951D01*
X023920Y026271D02*
X024347Y026271D01*
X024133Y026271D02*
X024133Y025631D01*
X026430Y023421D02*
X026430Y022994D01*
X026430Y023208D02*
X027071Y023208D01*
X026964Y022777D02*
X026430Y022777D01*
X026430Y022350D02*
X026964Y022350D01*
X027071Y022456D01*
X027071Y022670D01*
X026964Y022777D01*
X026751Y022132D02*
X026857Y022025D01*
X026857Y021705D01*
X027071Y021705D02*
X026430Y021705D01*
X026430Y022025D01*
X026537Y022132D01*
X026751Y022132D01*
X027071Y021487D02*
X026430Y021487D01*
X026430Y021060D02*
X027071Y021487D01*
X027071Y021060D02*
X026430Y021060D01*
X026430Y020844D02*
X026430Y020631D01*
X026430Y020738D02*
X027071Y020738D01*
X027071Y020844D02*
X027071Y020631D01*
X012347Y018771D02*
X012347Y018238D01*
X012240Y018131D01*
X012027Y018131D01*
X011920Y018238D01*
X011920Y018771D01*
X011702Y018771D02*
X011275Y018771D01*
X011275Y018131D01*
X011702Y018131D01*
X011489Y018451D02*
X011275Y018451D01*
X011058Y018131D02*
X011058Y018771D01*
X010631Y018771D02*
X011058Y018131D01*
X010631Y018131D02*
X010631Y018771D01*
X009071Y020238D02*
X009071Y020451D01*
X008964Y020558D01*
X008537Y020558D01*
X008430Y020451D01*
X008430Y020238D01*
X008537Y020131D01*
X008964Y020131D01*
X009071Y020238D01*
X008964Y020775D02*
X008430Y020775D01*
X008430Y021202D02*
X008964Y021202D01*
X009071Y021096D01*
X009071Y020882D01*
X008964Y020775D01*
X008430Y021420D02*
X008430Y021847D01*
X008430Y021633D02*
X009071Y021633D01*
X009071Y022064D02*
X008430Y022064D01*
X008430Y022385D01*
X008537Y022491D01*
X008751Y022491D01*
X008857Y022385D01*
X008857Y022064D01*
X008964Y022709D02*
X008430Y022709D01*
X008430Y023136D02*
X008964Y023136D01*
X009071Y023029D01*
X009071Y022816D01*
X008964Y022709D01*
X008430Y023353D02*
X008430Y023780D01*
X008430Y023567D02*
X009071Y023567D01*
X010631Y025631D02*
X010631Y026271D01*
X011058Y026271D02*
X011058Y025631D01*
X011275Y025738D02*
X011382Y025631D01*
X011596Y025631D01*
X011702Y025738D01*
X011702Y026165D01*
X011596Y026271D01*
X011382Y026271D01*
X011275Y026165D01*
X011275Y025738D01*
X011058Y025951D02*
X010631Y025951D01*
X011920Y026271D02*
X012347Y026271D01*
X012133Y026271D02*
X012133Y025631D01*
D11*
X013372Y025054D02*
X013372Y022101D01*
X009829Y022101D01*
X009829Y025054D01*
X013372Y025054D01*
X013372Y022101D02*
X013372Y019109D01*
X009829Y019109D01*
X009829Y019148D02*
X009829Y022101D01*
X021829Y022101D02*
X021829Y019148D01*
X021829Y019109D02*
X025372Y019109D01*
X025372Y022101D01*
X021829Y022101D01*
X021829Y025054D01*
X025372Y025054D01*
X025372Y022101D01*
X022983Y012101D02*
X022985Y012167D01*
X022991Y012233D01*
X023001Y012299D01*
X023014Y012364D01*
X023032Y012428D01*
X023053Y012490D01*
X023078Y012552D01*
X023106Y012612D01*
X023138Y012670D01*
X023174Y012726D01*
X023212Y012779D01*
X023254Y012831D01*
X023299Y012880D01*
X023346Y012926D01*
X023397Y012969D01*
X023449Y013009D01*
X023504Y013046D01*
X023561Y013080D01*
X023620Y013110D01*
X023681Y013137D01*
X023743Y013160D01*
X023806Y013179D01*
X023871Y013195D01*
X023936Y013207D01*
X024002Y013215D01*
X024068Y013219D01*
X024134Y013219D01*
X024200Y013215D01*
X024266Y013207D01*
X024331Y013195D01*
X024396Y013179D01*
X024459Y013160D01*
X024521Y013137D01*
X024582Y013110D01*
X024641Y013080D01*
X024698Y013046D01*
X024753Y013009D01*
X024805Y012969D01*
X024856Y012926D01*
X024903Y012880D01*
X024948Y012831D01*
X024990Y012779D01*
X025028Y012726D01*
X025064Y012670D01*
X025096Y012612D01*
X025124Y012552D01*
X025149Y012490D01*
X025170Y012428D01*
X025188Y012364D01*
X025201Y012299D01*
X025211Y012233D01*
X025217Y012167D01*
X025219Y012101D01*
X025217Y012035D01*
X025211Y011969D01*
X025201Y011903D01*
X025188Y011838D01*
X025170Y011774D01*
X025149Y011712D01*
X025124Y011650D01*
X025096Y011590D01*
X025064Y011532D01*
X025028Y011476D01*
X024990Y011423D01*
X024948Y011371D01*
X024903Y011322D01*
X024856Y011276D01*
X024805Y011233D01*
X024753Y011193D01*
X024698Y011156D01*
X024641Y011122D01*
X024582Y011092D01*
X024521Y011065D01*
X024459Y011042D01*
X024396Y011023D01*
X024331Y011007D01*
X024266Y010995D01*
X024200Y010987D01*
X024134Y010983D01*
X024068Y010983D01*
X024002Y010987D01*
X023936Y010995D01*
X023871Y011007D01*
X023806Y011023D01*
X023743Y011042D01*
X023681Y011065D01*
X023620Y011092D01*
X023561Y011122D01*
X023504Y011156D01*
X023449Y011193D01*
X023397Y011233D01*
X023346Y011276D01*
X023299Y011322D01*
X023254Y011371D01*
X023212Y011423D01*
X023174Y011476D01*
X023138Y011532D01*
X023106Y011590D01*
X023078Y011650D01*
X023053Y011712D01*
X023032Y011774D01*
X023014Y011838D01*
X023001Y011903D01*
X022991Y011969D01*
X022985Y012035D01*
X022983Y012101D01*
X030483Y012101D02*
X030485Y012167D01*
X030491Y012233D01*
X030501Y012299D01*
X030514Y012364D01*
X030532Y012428D01*
X030553Y012490D01*
X030578Y012552D01*
X030606Y012612D01*
X030638Y012670D01*
X030674Y012726D01*
X030712Y012779D01*
X030754Y012831D01*
X030799Y012880D01*
X030846Y012926D01*
X030897Y012969D01*
X030949Y013009D01*
X031004Y013046D01*
X031061Y013080D01*
X031120Y013110D01*
X031181Y013137D01*
X031243Y013160D01*
X031306Y013179D01*
X031371Y013195D01*
X031436Y013207D01*
X031502Y013215D01*
X031568Y013219D01*
X031634Y013219D01*
X031700Y013215D01*
X031766Y013207D01*
X031831Y013195D01*
X031896Y013179D01*
X031959Y013160D01*
X032021Y013137D01*
X032082Y013110D01*
X032141Y013080D01*
X032198Y013046D01*
X032253Y013009D01*
X032305Y012969D01*
X032356Y012926D01*
X032403Y012880D01*
X032448Y012831D01*
X032490Y012779D01*
X032528Y012726D01*
X032564Y012670D01*
X032596Y012612D01*
X032624Y012552D01*
X032649Y012490D01*
X032670Y012428D01*
X032688Y012364D01*
X032701Y012299D01*
X032711Y012233D01*
X032717Y012167D01*
X032719Y012101D01*
X032717Y012035D01*
X032711Y011969D01*
X032701Y011903D01*
X032688Y011838D01*
X032670Y011774D01*
X032649Y011712D01*
X032624Y011650D01*
X032596Y011590D01*
X032564Y011532D01*
X032528Y011476D01*
X032490Y011423D01*
X032448Y011371D01*
X032403Y011322D01*
X032356Y011276D01*
X032305Y011233D01*
X032253Y011193D01*
X032198Y011156D01*
X032141Y011122D01*
X032082Y011092D01*
X032021Y011065D01*
X031959Y011042D01*
X031896Y011023D01*
X031831Y011007D01*
X031766Y010995D01*
X031700Y010987D01*
X031634Y010983D01*
X031568Y010983D01*
X031502Y010987D01*
X031436Y010995D01*
X031371Y011007D01*
X031306Y011023D01*
X031243Y011042D01*
X031181Y011065D01*
X031120Y011092D01*
X031061Y011122D01*
X031004Y011156D01*
X030949Y011193D01*
X030897Y011233D01*
X030846Y011276D01*
X030799Y011322D01*
X030754Y011371D01*
X030712Y011423D01*
X030674Y011476D01*
X030638Y011532D01*
X030606Y011590D01*
X030578Y011650D01*
X030553Y011712D01*
X030532Y011774D01*
X030514Y011838D01*
X030501Y011903D01*
X030491Y011969D01*
X030485Y012035D01*
X030483Y012101D01*
X010483Y012101D02*
X010485Y012167D01*
X010491Y012233D01*
X010501Y012299D01*
X010514Y012364D01*
X010532Y012428D01*
X010553Y012490D01*
X010578Y012552D01*
X010606Y012612D01*
X010638Y012670D01*
X010674Y012726D01*
X010712Y012779D01*
X010754Y012831D01*
X010799Y012880D01*
X010846Y012926D01*
X010897Y012969D01*
X010949Y013009D01*
X011004Y013046D01*
X011061Y013080D01*
X011120Y013110D01*
X011181Y013137D01*
X011243Y013160D01*
X011306Y013179D01*
X011371Y013195D01*
X011436Y013207D01*
X011502Y013215D01*
X011568Y013219D01*
X011634Y013219D01*
X011700Y013215D01*
X011766Y013207D01*
X011831Y013195D01*
X011896Y013179D01*
X011959Y013160D01*
X012021Y013137D01*
X012082Y013110D01*
X012141Y013080D01*
X012198Y013046D01*
X012253Y013009D01*
X012305Y012969D01*
X012356Y012926D01*
X012403Y012880D01*
X012448Y012831D01*
X012490Y012779D01*
X012528Y012726D01*
X012564Y012670D01*
X012596Y012612D01*
X012624Y012552D01*
X012649Y012490D01*
X012670Y012428D01*
X012688Y012364D01*
X012701Y012299D01*
X012711Y012233D01*
X012717Y012167D01*
X012719Y012101D01*
X012717Y012035D01*
X012711Y011969D01*
X012701Y011903D01*
X012688Y011838D01*
X012670Y011774D01*
X012649Y011712D01*
X012624Y011650D01*
X012596Y011590D01*
X012564Y011532D01*
X012528Y011476D01*
X012490Y011423D01*
X012448Y011371D01*
X012403Y011322D01*
X012356Y011276D01*
X012305Y011233D01*
X012253Y011193D01*
X012198Y011156D01*
X012141Y011122D01*
X012082Y011092D01*
X012021Y011065D01*
X011959Y011042D01*
X011896Y011023D01*
X011831Y011007D01*
X011766Y010995D01*
X011700Y010987D01*
X011634Y010983D01*
X011568Y010983D01*
X011502Y010987D01*
X011436Y010995D01*
X011371Y011007D01*
X011306Y011023D01*
X011243Y011042D01*
X011181Y011065D01*
X011120Y011092D01*
X011061Y011122D01*
X011004Y011156D01*
X010949Y011193D01*
X010897Y011233D01*
X010846Y011276D01*
X010799Y011322D01*
X010754Y011371D01*
X010712Y011423D01*
X010674Y011476D01*
X010638Y011532D01*
X010606Y011590D01*
X010578Y011650D01*
X010553Y011712D01*
X010532Y011774D01*
X010514Y011838D01*
X010501Y011903D01*
X010491Y011969D01*
X010485Y012035D01*
X010483Y012101D01*
X002983Y012101D02*
X002985Y012167D01*
X002991Y012233D01*
X003001Y012299D01*
X003014Y012364D01*
X003032Y012428D01*
X003053Y012490D01*
X003078Y012552D01*
X003106Y012612D01*
X003138Y012670D01*
X003174Y012726D01*
X003212Y012779D01*
X003254Y012831D01*
X003299Y012880D01*
X003346Y012926D01*
X003397Y012969D01*
X003449Y013009D01*
X003504Y013046D01*
X003561Y013080D01*
X003620Y013110D01*
X003681Y013137D01*
X003743Y013160D01*
X003806Y013179D01*
X003871Y013195D01*
X003936Y013207D01*
X004002Y013215D01*
X004068Y013219D01*
X004134Y013219D01*
X004200Y013215D01*
X004266Y013207D01*
X004331Y013195D01*
X004396Y013179D01*
X004459Y013160D01*
X004521Y013137D01*
X004582Y013110D01*
X004641Y013080D01*
X004698Y013046D01*
X004753Y013009D01*
X004805Y012969D01*
X004856Y012926D01*
X004903Y012880D01*
X004948Y012831D01*
X004990Y012779D01*
X005028Y012726D01*
X005064Y012670D01*
X005096Y012612D01*
X005124Y012552D01*
X005149Y012490D01*
X005170Y012428D01*
X005188Y012364D01*
X005201Y012299D01*
X005211Y012233D01*
X005217Y012167D01*
X005219Y012101D01*
X005217Y012035D01*
X005211Y011969D01*
X005201Y011903D01*
X005188Y011838D01*
X005170Y011774D01*
X005149Y011712D01*
X005124Y011650D01*
X005096Y011590D01*
X005064Y011532D01*
X005028Y011476D01*
X004990Y011423D01*
X004948Y011371D01*
X004903Y011322D01*
X004856Y011276D01*
X004805Y011233D01*
X004753Y011193D01*
X004698Y011156D01*
X004641Y011122D01*
X004582Y011092D01*
X004521Y011065D01*
X004459Y011042D01*
X004396Y011023D01*
X004331Y011007D01*
X004266Y010995D01*
X004200Y010987D01*
X004134Y010983D01*
X004068Y010983D01*
X004002Y010987D01*
X003936Y010995D01*
X003871Y011007D01*
X003806Y011023D01*
X003743Y011042D01*
X003681Y011065D01*
X003620Y011092D01*
X003561Y011122D01*
X003504Y011156D01*
X003449Y011193D01*
X003397Y011233D01*
X003346Y011276D01*
X003299Y011322D01*
X003254Y011371D01*
X003212Y011423D01*
X003174Y011476D01*
X003138Y011532D01*
X003106Y011590D01*
X003078Y011650D01*
X003053Y011712D01*
X003032Y011774D01*
X003014Y011838D01*
X003001Y011903D01*
X002991Y011969D01*
X002985Y012035D01*
X002983Y012101D01*
D12*
X015231Y018601D03*
X015231Y021101D03*
X015231Y023601D03*
X018971Y023601D03*
X018971Y021101D03*
X018971Y018601D03*
M02*
