%
M48
M72
T01C0.0320
T02C0.0400
T03C0.0551
T04C0.1260
T05C0.1500
%
T01
X14601Y18601
X14601Y21101
X14601Y23601
X19601Y23601
X19601Y21101
X19601Y18601
T02
X19101Y6101
X18101Y6101
X17101Y6101
T03
X11601Y20624
X11601Y23577
X23601Y23577
X23601Y20624
T04
X2101Y2101
X2101Y26101
X33101Y26101
X33101Y2101
T05
X31601Y12101
X24101Y12101
X11601Y12101
X4101Y12101
M30
